<svg width="208" height="115" viewBox="0 0 208 115" fill="none" xmlns="http://www.w3.org/2000/svg">
<path d="M23.2598 113.197L1.24252 113.287C1.52039 113.084 2.04962 111.872 2.8302 109.648C3.381 108.032 3.64919 105.458 3.63476 101.927L3.26808 12.181C3.24211 5.82465 2.41378 2.04443 0.783081 0.840332L22.8004 0.750374L22.9315 32.8348L22.5831 32.8362C22.5538 25.6727 21.9024 19.7225 20.6289 14.9856C19.073 9.3418 16.73 4.34711 13.6179 4.35983C12.1315 4.3659 11.4042 8.26323 11.4182 11.6937L11.5035 32.5788L19.7252 32.5452L19.766 42.5338L19.457 69.2261C19.4409 65.2912 18.9012 52.5764 17.9039 47.233C16.6703 40.8816 15.2756 34.9129 13.7427 34.9192C12.2563 34.9253 11.5312 39.3388 11.5443 42.5673L11.788 102.196C11.8061 106.635 12.6977 108.851 14.4628 108.844C16.646 108.835 18.6042 104.943 20.3376 97.1667C21.5674 91.209 22.3786 85.101 22.7711 78.8441L23.1194 78.8427L23.2598 113.197ZM26.9112 0.733578L45.7931 0.65643C50.4845 0.637262 52.8472 4.76435 52.881 13.0377C52.9107 20.3021 51.3306 25.8074 48.1408 29.5536C45.0434 33.1985 41.5462 35.5839 37.649 36.7096L37.9149 101.787C37.9375 107.336 38.766 111.116 40.3999 113.127L27.3706 113.18C28.9902 111.66 29.7876 107.873 29.7629 101.82L29.3962 12.0742C29.3702 5.71789 28.5419 1.93767 26.9112 0.733578ZM37.5343 8.64897L37.6156 28.5372C37.6214 29.9497 37.9495 30.6546 38.5997 30.652C39.761 30.6472 40.9393 29.129 42.1346 26.0972C43.3294 22.9645 44.1796 13.3554 44.1627 9.2188C44.1363 2.76154 42.8162 3.45417 40.4007 3.46404C38.5891 3.47144 37.5166 4.31049 37.5343 8.64897ZM65.9889 11.9247L66.3568 101.973C66.3795 107.522 68.0239 110.997 69.6578 113.008L56.6286 113.061C58.2483 111.541 59.8656 108.053 59.8409 102L59.4729 11.9514C59.447 5.59501 57.8 1.81813 56.1691 0.614036L69.1984 0.560801C67.5801 2.38354 65.9654 6.17374 65.9889 11.9247ZM76.0996 101.63L75.7329 11.8849C75.7069 5.52857 74.8785 1.74835 73.2479 0.544256L95.2652 0.454298L95.3962 32.5387L95.0479 32.5401C95.0186 25.3767 94.3672 19.4264 93.0937 14.6895C91.5378 9.04572 89.1946 4.05103 86.0827 4.06375C84.5961 4.06982 83.869 7.96716 83.883 11.3976L83.9683 32.2827L92.19 32.2491L92.3068 60.8527L92.3674 75.6752C92.3513 71.7403 91.366 52.2804 90.3687 46.937C89.1349 40.5855 87.7436 35.4106 86.2108 35.4169C84.7242 35.4229 83.9959 39.0427 84.0091 42.2713L84.2528 101.9C84.2746 107.247 85.1023 110.927 86.7365 112.938L73.7073 112.991C75.3268 111.471 76.1243 107.684 76.0996 101.63ZM101.444 65.1419L97.03 93.3724C96.9858 93.8769 96.9419 94.5333 96.8987 95.3404C96.902 96.1474 96.9057 97.0554 96.9098 98.0646C96.9255 101.898 97.2165 104.924 97.783 107.142C98.349 109.258 99.3789 111.171 100.872 112.88L89.7242 112.926C91.666 110.698 93.1811 106.353 94.2695 99.8915C94.3606 99.3868 94.4511 98.8313 94.5415 98.2256C94.6317 97.5187 94.7214 96.7617 94.8109 95.9543L100.899 17.0791C100.944 16.6754 100.962 15.5654 100.955 13.7493C100.93 7.69568 99.9831 3.26011 98.1135 0.44266L107.311 0.405083L118.953 99.7906C119.781 109.069 121.395 110.677 123.586 112.787L108.885 112.847C110.268 110.42 110.95 106.584 110.928 101.337C110.919 99.117 110.841 97.1498 110.695 95.4354L107.548 58.5203C106.496 42.2794 102.541 60.8109 101.444 65.1419ZM101.408 56.3874L106.515 46.871C106.414 44.9544 104.958 27.253 104.619 23.7231C104.326 20.1929 103.936 15.7551 103.45 10.4096C103.363 11.9234 103.208 13.8411 102.985 16.1626C102.809 18.383 102.611 21.0071 102.39 24.0349L101.408 56.3874ZM132.906 13.9215L133.244 96.554C133.272 103.516 134.455 108.909 136.794 112.733L126.794 112.774C129.148 109.132 129.776 103.732 129.747 96.5683L128.468 19.1705C128.391 0.318952 125.498 3.96303 123.95 0.337096L139.539 0.273404L148.219 78.3315L147.966 16.2815C147.938 9.42066 146.731 4.07807 144.347 0.253761L154.146 0.213723C151.793 4.05739 151.798 9.00128 151.827 15.963L152.214 110.753C150.014 116.914 147.858 114.1 147.287 110.773L132.906 13.9215ZM167.383 11.5105L167.768 105.74C167.791 111.289 169.874 110.58 171.508 112.591L158.011 112.647C159.631 111.127 161.595 111.819 161.57 105.765L161.183 11.0818C161.157 4.7254 159.182 1.4039 157.552 0.199808L170.581 0.146573C168.963 1.96931 167.36 5.75947 167.383 11.5105ZM185.067 64.8003L180.654 93.0307C180.609 93.5352 180.566 94.1916 180.522 94.9987C180.526 95.8057 180.529 96.7137 180.533 97.7229C180.549 101.557 180.84 104.582 181.407 106.8C181.973 108.916 183.003 110.829 184.496 112.538L173.348 112.584C175.29 110.356 176.805 106.012 177.893 99.5498C177.984 99.0452 178.075 98.4897 178.165 97.8839C178.255 97.1771 178.345 96.42 178.435 95.6127L184.522 16.7375C184.567 16.3337 184.586 15.2238 184.579 13.4077C184.554 7.35401 183.607 2.91844 181.737 0.100991L194.766 0.0477568L203.351 101.413C204.178 110.692 205.018 110.336 207.21 112.446L192.508 112.506C193.892 110.079 194.573 106.242 194.552 100.995C194.543 98.7753 194.465 96.8082 194.319 95.0937L191.172 58.1786C190.244 44.3185 186.79 60.2079 185.067 64.8003ZM185.031 56.0457L190.257 47.4935C190.156 45.5769 188.582 26.9114 188.242 23.3814C187.949 19.8513 187.56 15.4134 187.073 10.0679C186.987 11.5817 186.832 13.4994 186.609 15.8209C186.432 18.0413 186.234 20.6654 186.014 23.6932L185.031 56.0457Z" fill="#F3E8CC"/>
</svg>
