<svg width="193" height="68" viewBox="0 0 193 68" fill="none" xmlns="http://www.w3.org/2000/svg">
<path d="M21.3961 66.5025L0.9372 66.5861C1.19569 66.4678 1.68918 65.7617 2.41767 64.4679C2.93178 63.527 3.18464 62.0298 3.17625 59.9765L2.96303 7.79047C2.94793 4.09432 2.1836 1.89732 0.670044 1.19946L21.1289 1.11587L21.2052 19.7726L20.8814 19.7739C20.8644 15.6085 20.2676 12.1493 19.0909 9.39667C17.6532 6.11704 15.4832 3.21598 12.5913 3.2278C11.2101 3.23344 10.5288 5.50075 10.5369 7.49551L10.5865 19.64L18.2262 19.6088L18.25 25.417L17.9249 40.9389C17.9156 38.6508 17.4322 31.258 16.5131 28.1523C15.3757 24.4607 14.0883 20.9919 12.6639 20.9977C11.2827 21.0034 10.6026 23.5708 10.6103 25.4482L10.7519 60.1216C10.7625 62.7029 11.5878 63.9904 13.228 63.9837C15.2566 63.9754 17.0818 61.7091 18.7035 57.185C19.8547 53.7188 20.6172 50.166 20.9908 46.527L21.3145 46.5257L21.3961 66.5025ZM24.9488 1.10026L42.4942 1.02858C46.8535 1.01077 49.0431 3.40729 49.0628 8.21815C49.08 12.4423 47.604 15.6459 44.6347 17.8288C41.7514 19.9527 38.4983 21.3447 34.8754 22.0049L35.03 59.8464C35.0432 63.0733 35.8076 65.2703 37.3229 66.4374L25.2159 66.4869C26.723 65.6007 27.4694 63.3975 27.455 59.8774L27.2418 7.69127C27.2267 3.99513 26.4623 1.79812 24.9488 1.10026ZM34.8087 5.68793L34.8559 17.2527C34.8593 18.0741 35.1632 18.4835 35.7674 18.4811C36.8465 18.4766 37.9436 17.5921 39.0585 15.8275C40.1732 14.0041 40.9769 8.41529 40.9671 6.00987C40.9517 2.25504 39.724 2.65968 37.4795 2.66885C35.7962 2.67573 34.7984 3.16515 34.8087 5.68793ZM61.2444 7.55234L61.4583 59.9144C61.4715 63.1413 62.9946 65.1592 64.51 66.3263L52.403 66.3758C53.9102 65.4896 55.418 63.4593 55.4036 59.9392L55.1896 7.57708C55.1745 3.88094 53.6495 1.68704 52.1358 0.989185L64.2428 0.939718C62.7365 2.00193 61.2307 4.20821 61.2444 7.55234ZM70.5119 59.7014L70.2987 7.51535C70.2836 3.8192 69.5192 1.6222 68.0057 0.924343L88.4646 0.840753L88.5408 19.4975L88.2171 19.4988C88.2001 15.3333 87.6032 11.8742 86.4266 9.12155C84.9888 5.84192 82.8186 2.94086 79.927 2.95268C78.5456 2.95832 77.8644 5.22563 77.8726 7.22039L77.9222 19.3649L85.5619 19.3337L85.6298 35.9663L85.6651 44.5854C85.6557 42.2973 84.7678 30.9829 83.8487 27.8771C82.7112 24.1856 81.4258 21.1784 80.0014 21.1842C78.6201 21.1898 77.9382 23.2957 77.9459 25.1731L78.0876 59.8465C78.1003 62.9558 78.8642 65.0944 80.3798 66.2615L68.2729 66.311C69.7798 65.4247 70.5263 63.2216 70.5119 59.7014ZM94.1137 38.4475L89.9724 54.8696C89.9307 55.1631 89.889 55.5448 89.8476 56.0142C89.8496 56.4835 89.8517 57.0115 89.8541 57.5983C89.8632 59.8276 90.1294 61.5866 90.6526 62.8753C91.1756 64.1053 92.1298 65.2162 93.515 66.2078L83.156 66.2501C84.9636 64.9519 86.3776 62.4236 87.3982 58.6644C87.4835 58.3708 87.5684 58.0477 87.6532 57.6953C87.738 57.2841 87.8225 56.8438 87.9068 56.3742L93.6758 10.5C93.7181 10.2651 93.737 9.61971 93.7327 8.56367C93.7183 5.04353 92.8446 2.46562 91.1113 0.829939L99.6574 0.795021L110.335 58.5707C111.091 63.9651 112.588 64.8978 114.621 66.1216L100.96 66.1774C102.25 64.764 102.888 62.5321 102.875 59.4812C102.87 58.1904 102.801 57.0466 102.667 56.0499L99.7955 34.5884C98.8408 25.1459 95.1394 35.9275 94.1137 38.4475ZM94.0929 33.3568L98.8517 27.8158C98.7609 26.7015 97.4337 16.4103 97.1231 14.3581C96.8557 12.3058 96.4999 9.72575 96.0555 6.61807C95.9729 7.49846 95.8264 8.6138 95.616 9.96405C95.4488 11.2555 95.2608 12.7817 95.052 14.5426L94.0929 33.3568ZM123.422 8.61837L123.618 56.6683C123.635 60.7165 124.727 63.851 126.894 66.0714L117.602 66.1094C119.794 63.9883 120.386 60.8469 120.369 56.6816L119.291 11.677C119.246 0.714987 116.552 2.83811 115.119 0.731847L129.605 0.672662L137.56 46.0507L137.412 9.96929C137.396 5.97981 136.282 2.87484 134.072 0.65441L143.178 0.617206C140.986 2.85562 140.984 5.73046 141 9.77862L141.225 64.8981C139.172 68.4836 137.173 66.8507 136.647 64.9168L123.422 8.61837ZM155.462 7.16739L155.686 61.9608C155.699 65.1877 157.636 64.7726 159.151 65.9396L146.61 65.9909C148.117 65.1047 149.941 65.5045 149.926 61.9843L149.702 6.92691C149.686 3.23076 147.856 1.30213 146.343 0.604275L158.45 0.554809C156.943 1.61702 155.448 3.82325 155.462 7.16739ZM171.818 38.13L167.677 54.5522C167.635 54.8456 167.594 55.2273 167.552 55.6967C167.554 56.166 167.556 56.694 167.559 57.2808C167.568 59.5101 167.834 61.2691 168.357 62.5578C168.88 63.7878 169.834 64.8987 171.22 65.8903L160.861 65.9327C162.668 64.6344 164.082 62.1061 165.103 58.3469C165.188 58.0533 165.273 57.7302 165.358 57.3778C165.443 56.9666 165.527 56.5263 165.611 56.0567L171.38 10.1825C171.423 9.94766 171.442 9.30223 171.437 8.24618C171.423 4.72604 170.549 2.14813 168.816 0.512454L180.923 0.462987L188.755 59.3943C189.511 64.7888 190.292 64.5803 192.326 65.8041L178.665 65.8599C179.954 64.4466 180.593 62.2146 180.58 59.1637C180.575 57.8729 180.505 56.7291 180.372 55.7324L177.5 34.2709C176.658 26.2126 173.426 35.4571 171.818 38.13ZM171.798 33.0394L176.665 28.0589C176.575 26.9445 175.138 16.0928 174.828 14.0407C174.56 11.9883 174.205 9.40827 173.76 6.30058C173.678 7.18097 173.531 8.29631 173.321 9.64657C173.153 10.938 172.965 12.4642 172.757 14.2251L171.798 33.0394Z" fill="#F3E8CC"/>
</svg>
